<svg width="35" height="35" viewBox="0 0 35 35" fill="none" xmlns="http://www.w3.org/2000/svg">
<path d="M34.9885 17.5006C34.9885 26.3392 28.4387 33.6462 19.93 34.832C19.1344 34.9424 18.3205 35 17.4942 35C16.5405 35 15.604 34.924 14.6919 34.7768C6.36221 33.4353 0 26.2104 0 17.5006C0 7.83554 7.83324 0 17.4955 0C27.1577 0 34.9909 7.83554 34.9909 17.5006H34.9885Z" fill="#737373"/>
<path d="M19.93 14.0526V17.8649H24.6447L23.8981 23.0003H19.93V34.8321C19.1344 34.9424 18.3205 35.0001 17.4942 35.0001C16.5405 35.0001 15.604 34.9241 14.6919 34.7769V23.0003H10.3438V17.8649H14.6919V13.2003C14.6919 10.3065 17.037 7.95947 19.9313 7.95947V7.96193C19.9398 7.96193 19.9472 7.95947 19.9558 7.95947H24.6459V12.4008H21.5813C20.6704 12.4008 19.9313 13.1403 19.9313 14.0513L19.93 14.0526Z" fill="white"/>
</svg>
