<svg width="35" height="35" viewBox="0 0 35 35" fill="none" xmlns="http://www.w3.org/2000/svg">
<path d="M17.5347 0H17.455C7.81488 0 0 7.81718 0 17.4601V17.5399C0 27.1828 7.81488 35 17.455 35H17.5347C27.1748 35 34.9897 27.1828 34.9897 17.5399V17.4601C34.9897 7.81718 27.1748 0 17.5347 0Z" fill="#737373"/>
<path d="M22.9089 7.12061H12.0821C9.09098 7.12061 6.65765 9.55465 6.65765 12.5466V22.4545C6.65765 25.4465 9.09098 27.8805 12.0821 27.8805H22.9089C25.9 27.8805 28.3333 25.4465 28.3333 22.4545V12.5466C28.3333 9.55465 25.9 7.12061 22.9089 7.12061ZM8.57122 12.5466C8.57122 10.6104 10.1464 9.03473 12.0821 9.03473H22.9089C24.8445 9.03473 26.4197 10.6104 26.4197 12.5466V22.4545C26.4197 24.3907 24.8445 25.9664 22.9089 25.9664H12.0821C10.1464 25.9664 8.57122 24.3907 8.57122 22.4545V12.5466Z" fill="white"/>
<path d="M17.4955 22.5464C20.277 22.5464 22.5411 20.2828 22.5411 17.4993C22.5411 14.7157 20.2782 12.4521 17.4955 12.4521C14.7128 12.4521 12.4499 14.7157 12.4499 17.4993C12.4499 20.2828 14.7128 22.5464 17.4955 22.5464ZM17.4955 14.3675C19.2227 14.3675 20.6276 15.7728 20.6276 17.5005C20.6276 19.2282 19.2227 20.6335 17.4955 20.6335C15.7683 20.6335 14.3634 19.2282 14.3634 17.5005C14.3634 15.7728 15.7683 14.3675 17.4955 14.3675Z" fill="white"/>
<path d="M23.0082 13.2676C23.7572 13.2676 24.3677 12.6582 24.3677 11.9077C24.3677 11.1573 23.7584 10.5479 23.0082 10.5479C22.258 10.5479 21.6487 11.1573 21.6487 11.9077C21.6487 12.6582 22.258 13.2676 23.0082 13.2676Z" fill="white"/>
</svg>
