<svg width="35" height="35" viewBox="0 0 35 35" fill="none" xmlns="http://www.w3.org/2000/svg">
<path d="M17.5347 0H17.455C7.81488 0 0 7.81718 0 17.4601V17.5399C0 27.1828 7.81488 35 17.455 35H17.5347C27.1748 35 34.9897 27.1828 34.9897 17.5399V17.4601C34.9897 7.81718 27.1748 0 17.5347 0Z" fill="#737373"/>
<path d="M25.9526 12.662V15.9667C25.3753 15.9103 24.625 15.7791 23.7951 15.475C22.7115 15.0777 21.9048 14.5344 21.3765 14.1138V20.7931L21.363 20.7722C21.3716 20.9047 21.3765 21.0395 21.3765 21.1757C21.3765 24.4926 18.6784 27.1927 15.3612 27.1927C12.044 27.1927 9.34592 24.4926 9.34592 21.1757C9.34592 17.8587 12.044 15.1574 15.3612 15.1574C15.6861 15.1574 16.0048 15.1831 16.3162 15.2334V18.4902C16.017 18.3835 15.6959 18.3259 15.3612 18.3259C13.7909 18.3259 12.5123 19.6036 12.5123 21.1757C12.5123 22.7477 13.7909 24.0254 15.3612 24.0254C16.9315 24.0254 18.2101 22.7464 18.2101 21.1757C18.2101 21.1168 18.2089 21.0579 18.2052 20.9991V8.01953H21.5064C21.5187 8.29911 21.5297 8.58115 21.542 8.86072C21.5641 9.4113 21.7602 9.93979 22.1022 10.3726C22.5031 10.8815 23.0951 11.4726 23.9263 11.9447C24.7047 12.3849 25.4353 12.5749 25.9526 12.6645V12.662Z" fill="white"/>
</svg>
