<svg width="35" height="35" viewBox="0 0 35 35" fill="none" xmlns="http://www.w3.org/2000/svg">
<path d="M34.9885 17.5006C34.9885 26.3392 28.4387 33.6463 19.93 34.832C19.1344 34.9424 18.3205 35 17.4942 35C16.5405 35 15.604 34.924 14.6919 34.7768C6.36221 33.4354 0 26.2105 0 17.5006C0 7.83554 7.83324 0 17.4955 0C27.1577 0 34.9909 7.83554 34.9909 17.5006H34.9885Z" fill="#737373"/>
<path d="M7.09525 7.71899L15.1638 18.5097L7.04498 27.2833H8.87274L15.9815 19.6023L21.7246 27.2833H27.9434L19.4213 15.8856L26.9787 7.71899H25.1509L18.6048 14.7931L13.3153 7.71899H7.09646H7.09525ZM9.78232 9.06538H12.6386L25.2539 25.9369H22.3976L9.78232 9.06538Z" fill="white"/>
</svg>
